<?xml version="1.0" encoding="utf-8"?>
<!-- Generator: Adobe Illustrator 16.0.0, SVG Export Plug-In . SVG Version: 6.00 Build 0)  -->
<!DOCTYPE svg PUBLIC "-//W3C//DTD SVG 1.1//EN" "http://www.w3.org/Graphics/SVG/1.1/DTD/svg11.dtd">
<svg version="1.1" id="Camada_1" xmlns="http://www.w3.org/2000/svg" xmlns:xlink="http://www.w3.org/1999/xlink" x="0px" y="0px"
	 width="61.396px" height="53.867px" viewBox="0 0 61.396 53.867" enable-background="new 0 0 61.396 53.867" xml:space="preserve">
<polyline fill="#85261D" points="45.612,36.367 52.853,32.671 52.853,32.572 32.527,22.221 32.527,16.68 57.298,30.111 
	57.298,35.236 32.47,48.718 32.47,43.075 40.6,38.93 "/>
<polyline fill="#8B251D" points="15.933,22.688 8.688,18.994 8.688,18.893 29.018,8.542 29.018,3.001 4.248,16.431 4.248,21.555 
	29.075,35.041 29.075,29.395 20.945,25.249 "/>
<polygon fill="#C65130" points="4.248,16.431 4.248,21.555 29.075,35.041 29.075,29.395 "/>
<polygon fill="#C65130" points="32.34,3.205 32.34,8.327 57.167,21.812 57.167,16.167 "/>
<polyline fill="#BB5030" points="32.527,22.221 32.527,16.68 57.298,30.111 57.298,35.236 "/>
<polyline fill="#BB5030" points="4.002,35.383 4.002,29.84 28.776,43.273 28.776,48.396 "/>
</svg>
