<svg width="122" height="16" viewBox="0 0 122 16" fill="none" xmlns="http://www.w3.org/2000/svg">
<path d="M9.15483 4.63778C9.09801 4.06487 8.85417 3.61979 8.4233 3.30256C7.99242 2.98532 7.40767 2.8267 6.66903 2.8267C6.16714 2.8267 5.74337 2.89773 5.39773 3.03977C5.05208 3.17708 4.78693 3.36884 4.60227 3.61506C4.42235 3.86127 4.33239 4.14062 4.33239 4.45312C4.32292 4.71354 4.37737 4.94081 4.49574 5.13494C4.61884 5.32907 4.78693 5.49716 5 5.6392C5.21307 5.77651 5.45928 5.89725 5.73864 6.00142C6.01799 6.10085 6.31629 6.18608 6.63352 6.2571L7.94034 6.5696C8.57481 6.71165 9.1572 6.90104 9.6875 7.13778C10.2178 7.37453 10.6771 7.66572 11.0653 8.01136C11.4536 8.35701 11.7543 8.7642 11.9673 9.23295C12.1851 9.7017 12.2964 10.2391 12.3011 10.8452C12.2964 11.7353 12.0691 12.5071 11.6193 13.1605C11.1742 13.8092 10.5303 14.3134 9.6875 14.6733C8.84943 15.0284 7.83854 15.206 6.65483 15.206C5.48059 15.206 4.45786 15.026 3.58665 14.6662C2.72017 14.3063 2.04309 13.7737 1.5554 13.0682C1.07244 12.358 0.819129 11.4796 0.795455 10.4332H3.77131C3.80445 10.9209 3.94413 11.3281 4.19034 11.6548C4.44129 11.9768 4.77509 12.2206 5.19176 12.3864C5.61316 12.5473 6.08902 12.6278 6.61932 12.6278C7.14015 12.6278 7.59233 12.5521 7.97585 12.4006C8.36411 12.2491 8.66477 12.0384 8.87784 11.7685C9.09091 11.4986 9.19744 11.1884 9.19744 10.8381C9.19744 10.5114 9.10038 10.2367 8.90625 10.0142C8.71686 9.79167 8.4375 9.60227 8.06818 9.44602C7.7036 9.28977 7.25616 9.14773 6.72585 9.01989L5.14205 8.62216C3.91572 8.32386 2.94744 7.85748 2.23722 7.22301C1.52699 6.58854 1.17424 5.7339 1.17898 4.65909C1.17424 3.77841 1.40862 3.009 1.8821 2.35085C2.36032 1.69271 3.0161 1.17898 3.84943 0.809659C4.68277 0.44034 5.62973 0.255681 6.69034 0.255681C7.76989 0.255681 8.71212 0.44034 9.51705 0.809659C10.3267 1.17898 10.9564 1.69271 11.4062 2.35085C11.8561 3.009 12.0881 3.77131 12.1023 4.63778H9.15483ZM14.3697 15V0.454545H24.1708V2.99006H17.445V6.45597H23.6665V8.99148H17.445V12.4645H24.1992V15H14.3697ZM26.6158 15V0.454545H32.3544C33.4529 0.454545 34.3904 0.651041 35.1669 1.04403C35.9482 1.43229 36.5424 1.9839 36.9496 2.69886C37.3615 3.40909 37.5675 4.24479 37.5675 5.20597C37.5675 6.17187 37.3591 7.00284 36.9425 7.69886C36.5258 8.39015 35.9221 8.92045 35.1314 9.28977C34.3454 9.65909 33.3937 9.84375 32.2763 9.84375H28.4339V7.37216H31.7791C32.3662 7.37216 32.8539 7.29167 33.2422 7.13068C33.6304 6.9697 33.9193 6.72822 34.1087 6.40625C34.3028 6.08428 34.3999 5.68419 34.3999 5.20597C34.3999 4.72301 34.3028 4.31581 34.1087 3.98438C33.9193 3.65294 33.6281 3.40199 33.2351 3.23153C32.8468 3.05634 32.3568 2.96875 31.7649 2.96875H29.6911V15H26.6158ZM34.4709 8.38068L38.0859 15H34.6911L31.1541 8.38068H34.4709ZM49.5259 15H44.3697V0.454545H49.5685C51.0316 0.454545 52.2911 0.745738 53.3469 1.32812C54.4028 1.90578 55.2148 2.73674 55.783 3.82102C56.3559 4.9053 56.6424 6.20265 56.6424 7.71307C56.6424 9.22822 56.3559 10.5303 55.783 11.6193C55.2148 12.7083 54.3981 13.544 53.3327 14.1264C52.2721 14.7088 51.0032 15 49.5259 15ZM47.445 12.3651H49.3981C50.3072 12.3651 51.0719 12.2041 51.6921 11.8821C52.3171 11.5554 52.7859 11.0511 53.0984 10.3693C53.4156 9.68277 53.5742 8.79735 53.5742 7.71307C53.5742 6.63826 53.4156 5.75994 53.0984 5.07812C52.7859 4.39631 52.3195 3.89441 51.6992 3.57244C51.079 3.25047 50.3143 3.08949 49.4052 3.08949H47.445V12.3651ZM61.9957 0.454545V15H58.9205V0.454545H61.9957ZM74.1708 5.15625C74.0714 4.81061 73.9317 4.50521 73.7518 4.24006C73.5719 3.97017 73.3517 3.7429 73.0913 3.55824C72.8356 3.36884 72.542 3.22443 72.2106 3.125C71.8839 3.02557 71.5217 2.97585 71.1239 2.97585C70.3806 2.97585 69.7272 3.16051 69.1637 3.52983C68.605 3.89915 68.1694 4.43655 67.8569 5.14205C67.5444 5.8428 67.3881 6.69981 67.3881 7.71307C67.3881 8.72633 67.542 9.58807 67.8498 10.2983C68.1576 11.0085 68.5932 11.5507 69.1566 11.9247C69.7201 12.294 70.3853 12.4787 71.1523 12.4787C71.8484 12.4787 72.4426 12.3556 72.935 12.1094C73.4322 11.8584 73.811 11.5057 74.0714 11.0511C74.3365 10.5966 74.4691 10.0592 74.4691 9.43892L75.0941 9.53125H71.3441V7.21591H77.4308V9.0483C77.4308 10.3267 77.1609 11.4252 76.6211 12.3438C76.0813 13.2576 75.3379 13.9631 74.391 14.4602C73.444 14.9527 72.3597 15.1989 71.1381 15.1989C69.7745 15.1989 68.5766 14.8982 67.5444 14.2969C66.5122 13.6908 65.7073 12.8314 65.1296 11.7188C64.5567 10.6013 64.2702 9.27557 64.2702 7.74148C64.2702 6.5625 64.4407 5.51136 64.7816 4.58807C65.1272 3.66004 65.6102 2.87405 66.2305 2.23011C66.8507 1.58617 67.5728 1.09612 68.3967 0.759943C69.2205 0.423768 70.113 0.255681 71.0742 0.255681C71.8981 0.255681 72.6651 0.37642 73.3754 0.617898C74.0856 0.85464 74.7153 1.19081 75.2646 1.62642C75.8185 2.06203 76.2707 2.58049 76.6211 3.18182C76.9715 3.77841 77.1964 4.43655 77.2958 5.15625H74.1708ZM82.8161 0.454545V15H79.7408V0.454545H82.8161ZM84.7923 2.99006V0.454545H96.7383V2.99006H92.2852V15H89.2454V2.99006H84.7923ZM99.4354 15H96.1399L101.161 0.454545H105.124L110.138 15H106.843L103.2 3.77841H103.086L99.4354 15ZM99.2294 9.28267H107.013V11.6832H99.2294V9.28267ZM111.889 15V0.454545H114.964V12.4645H121.2V15H111.889Z" fill="#272D38"/>
</svg>
