<svg width="140" height="43" viewBox="0 0 140 43" fill="none" xmlns="http://www.w3.org/2000/svg">
<path d="M21.0727 0.0791016C9.4747 0.0791016 0.0722656 9.48129 0.0722656 21.0792C0.0722656 32.6777 9.4747 42.0791 21.0727 42.0791C32.6719 42.0791 42.0733 32.6777 42.0733 21.0792C42.0733 9.48204 32.6719 0.0801046 21.0724 0.0801046L21.0727 0.0791016ZM30.7033 30.3673C30.3271 30.9842 29.5196 31.1798 28.9028 30.8011C23.9721 27.7894 17.765 27.1073 10.455 28.7774C9.75055 28.9379 9.04839 28.4966 8.8879 27.7919C8.72665 27.0872 9.16625 26.3851 9.87243 26.2246C17.872 24.3969 24.7339 25.1839 30.2695 28.5668C30.8864 28.9454 31.082 29.7504 30.7033 30.3673ZM33.2737 24.6492C32.7997 25.4196 31.7916 25.6628 31.0218 25.1889C25.3769 21.7192 16.7722 20.7144 10.0954 22.7411C9.22945 23.0026 8.31489 22.5146 8.05208 21.6502C7.79127 20.7843 8.27953 19.8715 9.14394 19.6082C16.7707 17.2941 26.2521 18.415 32.7345 22.3985C33.5044 22.8725 33.7477 23.8806 33.2737 24.6495V24.6492ZM33.4944 18.6949C26.726 14.6748 15.5592 14.3051 9.09704 16.2664C8.05935 16.5811 6.96197 15.9953 6.6475 14.9576C6.33303 13.9194 6.91834 12.8228 7.95678 12.5073C15.3749 10.2554 27.7066 10.6905 35.4991 15.3165C36.4344 15.8704 36.7404 17.0759 36.1862 18.008C35.6345 18.9414 34.4257 19.2491 33.4954 18.6949H33.4944ZM57.2074 19.4653C53.5812 18.6006 52.9367 17.9937 52.9367 16.7186C52.9367 15.5139 54.0702 14.7031 55.7579 14.7031C57.3929 14.7031 59.0129 15.3187 60.7132 16.5861C60.7633 16.6245 60.8285 16.6398 60.8912 16.6298C60.9564 16.6203 61.0116 16.5854 61.0492 16.533L62.8196 14.0373C62.8924 13.9345 62.8723 13.7928 62.7745 13.7143C60.7508 12.0911 58.4738 11.3019 55.8106 11.3019C51.896 11.3019 49.1601 13.6514 49.1601 17.013C49.1601 20.6178 51.5199 21.8942 55.5974 22.8795C59.0656 23.6787 59.6524 24.3483 59.6524 25.545C59.6524 26.8716 58.4687 27.6966 56.5629 27.6966C54.4464 27.6966 52.7185 26.9819 50.7876 25.3118C50.74 25.2691 50.6748 25.2516 50.6146 25.2541C50.5494 25.2591 50.4917 25.2892 50.4516 25.3368L48.4655 27.6991C48.3827 27.7994 48.3927 27.9449 48.488 28.0301C50.7349 30.0363 53.4984 31.0945 56.4826 31.0945C60.7006 31.0945 63.4265 28.79 63.4265 25.2215C63.434 22.2105 61.631 20.5428 57.2149 19.4685L57.2074 19.4653ZM72.9709 15.8893C71.1428 15.8893 69.6431 16.6095 68.4043 18.0853V16.4242C68.4043 16.293 68.299 16.1862 68.1686 16.1862H64.9211C64.7907 16.1862 64.6854 16.293 64.6854 16.4242V34.8812C64.6854 35.0116 64.7907 35.1194 64.9211 35.1194H68.1686C68.299 35.1194 68.4043 35.0116 68.4043 34.8812V29.0558C69.6431 30.4425 71.1428 31.1221 72.9709 31.1221C76.3688 31.1221 79.8094 28.5066 79.8094 23.5064C79.8144 18.5053 76.3739 15.889 72.9734 15.889L72.9709 15.8893ZM76.0328 23.5064C76.0328 26.0515 74.4655 27.8295 72.2186 27.8295C69.9992 27.8295 68.3241 25.9713 68.3241 23.5064C68.3241 21.0414 69.9992 19.1836 72.2186 19.1836C74.4279 19.1834 76.0328 21.001 76.0328 23.5062V23.5064ZM88.6241 15.8893C84.2481 15.8893 80.82 19.2586 80.82 23.5609C80.82 27.817 84.2255 31.1497 88.5714 31.1497C92.9624 31.1497 96.4005 27.7919 96.4005 23.5064C96.4005 19.2356 92.985 15.8898 88.6241 15.8898V15.8893ZM88.6241 27.8546C86.2969 27.8546 84.5415 25.9838 84.5415 23.5052C84.5415 21.0153 86.2367 19.2085 88.5714 19.2085C90.9136 19.2085 92.679 21.0785 92.679 23.5596C92.679 26.049 90.9738 27.8546 88.6241 27.8546ZM105.744 16.1862H102.171V12.5334C102.171 12.4025 102.065 12.2957 101.935 12.2957H98.6875C98.5571 12.2957 98.4493 12.4025 98.4493 12.5334V16.1862H96.8895C96.7591 16.1862 96.6538 16.293 96.6538 16.4242V19.2145C96.6538 19.3454 96.7591 19.4525 96.8895 19.4525H98.4493V26.6734C98.4493 29.5899 99.9013 31.0695 102.768 31.0695C103.931 31.0695 104.897 30.8287 105.807 30.3121C105.882 30.272 105.927 30.1918 105.927 30.1065V27.4483C105.927 27.3681 105.885 27.2903 105.814 27.2477C105.744 27.2026 105.656 27.2001 105.584 27.2377C104.959 27.5511 104.355 27.6966 103.678 27.6966C102.637 27.6966 102.171 27.2226 102.171 26.1644V19.4537H105.744C105.875 19.4537 105.98 19.3469 105.98 19.2157V16.4257C105.985 16.2945 105.88 16.1877 105.747 16.1877L105.744 16.1862ZM118.193 16.2005V15.7518C118.193 14.432 118.699 13.8435 119.833 13.8435C120.51 13.8435 121.054 13.9779 121.663 14.181C121.738 14.2046 121.816 14.1928 121.876 14.1479C121.939 14.103 121.974 14.031 121.974 13.9548V11.2189C121.974 11.1143 121.909 11.0218 121.806 10.9909C121.164 10.7996 120.342 10.6032 119.108 10.6032C116.111 10.6032 114.524 12.2919 114.524 15.485V16.1721H112.964C112.834 16.1721 112.726 16.279 112.726 16.4099V19.2145C112.726 19.3454 112.834 19.4525 112.964 19.4525H114.524V30.588C114.524 30.7209 114.632 30.8262 114.762 30.8262H118.007C118.14 30.8262 118.245 30.7209 118.245 30.588V19.4532H121.277L125.921 30.588C125.395 31.7566 124.876 31.9898 124.168 31.9898C123.597 31.9898 122.992 31.8193 122.378 31.4807C122.32 31.4506 122.25 31.4456 122.19 31.4632C122.127 31.4858 122.075 31.5309 122.049 31.5911L120.949 34.006C120.896 34.1214 120.941 34.2543 121.051 34.3145C122.2 34.9364 123.236 35.2022 124.517 35.2022C126.914 35.2022 128.241 34.0837 129.407 31.0795L135.039 16.5255C135.07 16.4522 135.059 16.3695 135.014 16.3045C134.972 16.2401 134.899 16.2012 134.821 16.2012H131.441C131.338 16.2012 131.248 16.2657 131.215 16.3607L127.752 26.2496L123.96 16.3542C123.925 16.2622 123.837 16.2012 123.74 16.2012H118.193V16.2005ZM110.975 16.1862H107.728C107.597 16.1862 107.49 16.293 107.49 16.4242V30.588C107.49 30.7209 107.597 30.8262 107.728 30.8262H110.975C111.106 30.8262 111.214 30.7209 111.214 30.588V16.4252C111.214 16.294 111.108 16.1872 110.975 16.1872V16.1862ZM109.37 9.73657C108.084 9.73657 107.041 10.7778 107.041 12.064C107.041 13.3509 108.084 14.3934 109.37 14.3934C110.657 14.3934 111.698 13.3509 111.698 12.064C111.698 10.778 110.654 9.73657 109.37 9.73657ZM137.813 20.7404C136.529 20.7404 135.528 19.7085 135.528 18.4554C135.528 17.2023 136.542 16.1586 137.826 16.1586C139.109 16.1586 140.11 17.1903 140.11 18.4424C140.11 19.6955 139.097 20.7404 137.813 20.7404ZM137.826 16.3858C136.654 16.3858 135.769 17.3161 135.769 18.4554C135.769 19.5942 136.649 20.512 137.813 20.512C138.984 20.512 139.869 19.5824 139.869 18.4424C139.869 17.3036 138.989 16.3858 137.826 16.3858ZM138.332 18.6773L138.979 19.5821H138.432L137.851 18.7521H137.352V19.5821H136.895V17.1837H137.963C138.523 17.1837 138.889 17.4689 138.889 17.9488C138.891 18.3421 138.663 18.5823 138.335 18.6773H138.332ZM137.946 17.5953H137.352V18.3538H137.946C138.242 18.3538 138.42 18.2086 138.42 17.9742C138.42 17.7274 138.242 17.5953 137.946 17.5953Z" fill="#272D38"/>
</svg>
