<svg width="248" height="247" viewBox="0 0 248 247" fill="none" xmlns="http://www.w3.org/2000/svg">
<path d="M185.647 185.222C219.672 151.197 219.672 96.0325 185.647 62.0079C151.623 27.9833 96.4577 27.9833 62.4331 62.0079C28.4085 96.0325 28.4085 151.197 62.4331 185.222C96.4577 219.247 151.623 219.247 185.647 185.222Z" fill="url(#paint0_radial_104_178)"/>
<path style="mix-blend-mode:multiply" d="M110.333 159.551C126.561 143.322 126.561 117.011 110.333 100.783C94.1049 84.5545 67.7936 84.5545 51.5653 100.783C35.337 117.011 35.3371 143.322 51.5653 159.551C67.7936 175.779 94.1048 175.779 110.333 159.551Z" fill="url(#paint1_radial_104_178)"/>
<path style="mix-blend-mode:multiply" d="M208.135 136.906C211.864 114.261 196.529 92.8806 173.883 89.152C151.238 85.4234 129.858 100.758 126.129 123.404C122.401 146.049 137.736 167.429 160.381 171.158C183.026 174.887 204.407 159.552 208.135 136.906Z" fill="url(#paint2_radial_104_178)"/>
<path d="M76.8056 92.791C76.8056 92.791 105.646 99.2906 108.772 119.211C108.772 119.211 91.4181 113.747 66.7399 120.614C66.7399 120.614 82.9476 109.246 94.3058 110.887C94.3058 110.887 92.179 103.315 76.8056 92.7819V92.791Z" fill="url(#paint3_radial_104_178)"/>
<path d="M171.274 92.7912C171.274 92.7912 142.434 99.2908 139.308 119.211C139.308 119.211 156.661 113.748 181.34 120.614C181.34 120.614 165.132 109.246 153.774 110.887C153.774 110.887 155.901 103.315 171.274 92.782V92.7912Z" fill="url(#paint4_radial_104_178)"/>
<path d="M76.0356 139.498C85.6062 161.82 103.51 176.864 124.044 176.864C144.579 176.864 162.483 161.82 172.053 139.498H76.0356Z" fill="url(#paint5_linear_104_178)"/>
<path style="mix-blend-mode:screen" d="M124.044 144.788C158.852 144.788 187.069 142.42 187.069 139.498C187.069 136.577 158.852 134.209 124.044 134.209C89.2368 134.209 61.0196 136.577 61.0196 139.498C61.0196 142.42 89.2368 144.788 124.044 144.788Z" fill="url(#paint6_radial_104_178)"/>
<path d="M125.236 185.509C114.859 185.509 106.443 177.093 106.443 166.716V139.498H144.029V166.716C144.029 177.093 135.613 185.509 125.236 185.509Z" fill="url(#paint7_linear_104_178)"/>
<path d="M140.967 145.255H107.122C103.941 145.255 101.365 142.679 101.365 139.498H146.733C146.733 142.679 144.157 145.255 140.976 145.255H140.967Z" fill="white"/>
<defs>
<radialGradient id="paint0_radial_104_178" cx="0" cy="0" r="1" gradientUnits="userSpaceOnUse" gradientTransform="translate(123.516 85.717) scale(116.204)">
<stop stop-color="white"/>
<stop offset="0.34" stop-color="#FBE197"/>
<stop offset="0.51" stop-color="#F9D264"/>
<stop offset="0.75" stop-color="#F7BD1E"/>
<stop offset="1" stop-color="#DB9800"/>
</radialGradient>
<radialGradient id="paint1_radial_104_178" cx="0" cy="0" r="1" gradientUnits="userSpaceOnUse" gradientTransform="translate(80.0137 133.046) scale(37.659)">
<stop stop-color="#ED1C24"/>
<stop offset="0.06" stop-color="#EE3037"/>
<stop offset="0.25" stop-color="#F36E73"/>
<stop offset="0.44" stop-color="#F7A1A5"/>
<stop offset="0.61" stop-color="#FACACC"/>
<stop offset="0.77" stop-color="#FDE7E8"/>
<stop offset="0.9" stop-color="#FEF8F8"/>
<stop offset="1" stop-color="white"/>
</radialGradient>
<radialGradient id="paint2_radial_104_178" cx="0" cy="0" r="1" gradientUnits="userSpaceOnUse" gradientTransform="translate(168.057 133.063) rotate(180) scale(37.659)">
<stop stop-color="#ED1C24"/>
<stop offset="0.06" stop-color="#EE3037"/>
<stop offset="0.25" stop-color="#F36E73"/>
<stop offset="0.44" stop-color="#F7A1A5"/>
<stop offset="0.61" stop-color="#FACACC"/>
<stop offset="0.77" stop-color="#FDE7E8"/>
<stop offset="0.9" stop-color="#FEF8F8"/>
<stop offset="1" stop-color="white"/>
</radialGradient>
<radialGradient id="paint3_radial_104_178" cx="0" cy="0" r="1" gradientUnits="userSpaceOnUse" gradientTransform="translate(86.147 92.8002) scale(25.4208)">
<stop stop-color="#B3B3B3"/>
<stop offset="0.46" stop-color="#4D4D4D"/>
<stop offset="1"/>
</radialGradient>
<radialGradient id="paint4_radial_104_178" cx="0" cy="0" r="1" gradientUnits="userSpaceOnUse" gradientTransform="translate(161.942 92.8004) rotate(180) scale(25.4208 25.4208)">
<stop stop-color="#B3B3B3"/>
<stop offset="0.46" stop-color="#4D4D4D"/>
<stop offset="1"/>
</radialGradient>
<linearGradient id="paint5_linear_104_178" x1="124.044" y1="196.408" x2="124.044" y2="157.329" gradientUnits="userSpaceOnUse">
<stop stop-color="#ED1C24"/>
<stop offset="1" stop-color="#4E272D"/>
</linearGradient>
<radialGradient id="paint6_radial_104_178" cx="0" cy="0" r="1" gradientUnits="userSpaceOnUse" gradientTransform="translate(122.027 117.928) scale(51.9229 4.22627)">
<stop stop-color="#F5F5F5"/>
<stop offset="0.05" stop-color="#C7C7C7"/>
<stop offset="0.09" stop-color="#9C9C9C"/>
<stop offset="0.14" stop-color="#777777"/>
<stop offset="0.2" stop-color="#565656"/>
<stop offset="0.25" stop-color="#3B3B3B"/>
<stop offset="0.32" stop-color="#252525"/>
<stop offset="0.4" stop-color="#141414"/>
<stop offset="0.49" stop-color="#080808"/>
<stop offset="0.63" stop-color="#010101"/>
<stop offset="1"/>
</radialGradient>
<linearGradient id="paint7_linear_104_178" x1="106.443" y1="162.499" x2="144.029" y2="162.499" gradientUnits="userSpaceOnUse">
<stop stop-color="#ED5079"/>
<stop offset="0.54" stop-color="#D6306D"/>
<stop offset="1" stop-color="#ED5079"/>
</linearGradient>
</defs>
</svg>
