<svg width="199" height="200" viewBox="0 0 199 200" fill="none" xmlns="http://www.w3.org/2000/svg">
<path d="M149.026 149.77C176.454 122.342 176.454 77.8721 149.026 50.4442C121.598 23.0163 77.1283 23.0163 49.7004 50.4442C22.2724 77.8721 22.2724 122.342 49.7004 149.77C77.1283 177.197 121.598 177.197 149.026 149.77Z" fill="url(#paint0_radial_104_235)"/>
<path style="mix-blend-mode:multiply" d="M88.3188 129.07C101.401 115.988 101.401 94.7782 88.3188 81.6963C75.2369 68.6143 54.0268 68.6143 40.9449 81.6963C27.8629 94.7782 27.863 115.988 40.9449 129.07C54.0269 142.152 75.2369 142.152 88.3188 129.07Z" fill="url(#paint1_radial_104_235)"/>
<path style="mix-blend-mode:multiply" d="M157.795 129.074C170.877 115.992 170.877 94.7817 157.795 81.6998C144.713 68.6178 123.503 68.6178 110.421 81.6998C97.3392 94.7817 97.3392 115.992 110.421 129.074C123.503 142.156 144.713 142.156 157.795 129.074Z" fill="url(#paint2_radial_104_235)"/>
<path d="M99.3663 121.018C87.8676 121.018 77.8469 125.06 72.4892 131.068C77.8469 119.059 87.875 110.967 99.3663 110.967C110.858 110.967 120.886 119.059 126.243 131.068C120.886 125.067 110.858 121.018 99.3663 121.018Z" fill="url(#paint3_linear_104_235)"/>
<path style="mix-blend-mode:screen" d="M99.3663 121.017C110.865 121.017 120.886 125.06 126.243 131.068C120.952 125.134 110.045 122.259 99.3663 122.259C88.6879 122.259 77.7804 125.141 72.4892 131.068C77.8469 125.067 87.875 121.017 99.3663 121.017Z" fill="url(#paint4_radial_104_235)"/>
<path d="M61.2933 75.2594C61.2933 75.2594 84.5414 80.4987 87.0613 96.5565C87.0613 96.5565 73.0725 92.1522 53.1794 97.6871C53.1794 97.6871 66.2444 88.5239 75.4003 89.8467C75.4003 89.8467 73.6859 83.7427 61.2933 75.252V75.2594Z" fill="url(#paint5_radial_104_235)"/>
<path d="M137.446 75.2594C137.446 75.2594 114.198 80.4987 111.678 96.5565C111.678 96.5565 125.667 92.1522 145.56 97.6871C145.56 97.6871 132.495 88.5239 123.339 89.8467C123.339 89.8467 125.053 83.7427 137.446 75.252V75.2594Z" fill="url(#paint6_radial_104_235)"/>
<defs>
<radialGradient id="paint0_radial_104_235" cx="0" cy="0" r="1" gradientUnits="userSpaceOnUse" gradientTransform="translate(98.9429 69.5514) scale(93.6744)">
<stop stop-color="white"/>
<stop offset="0.34" stop-color="#FBE197"/>
<stop offset="0.51" stop-color="#F9D264"/>
<stop offset="0.75" stop-color="#F7BD1E"/>
<stop offset="1" stop-color="#DB9800"/>
</radialGradient>
<radialGradient id="paint1_radial_104_235" cx="0" cy="0" r="1" gradientUnits="userSpaceOnUse" gradientTransform="translate(63.875 107.704) scale(30.3577)">
<stop stop-color="#ED1C24"/>
<stop offset="0.06" stop-color="#EE3037"/>
<stop offset="0.25" stop-color="#F36E73"/>
<stop offset="0.44" stop-color="#F7A1A5"/>
<stop offset="0.61" stop-color="#FACACC"/>
<stop offset="0.77" stop-color="#FDE7E8"/>
<stop offset="0.9" stop-color="#FEF8F8"/>
<stop offset="1" stop-color="white"/>
</radialGradient>
<radialGradient id="paint2_radial_104_235" cx="0" cy="0" r="1" gradientUnits="userSpaceOnUse" gradientTransform="translate(134.856 107.708) rotate(180) scale(30.3577)">
<stop stop-color="#ED1C24"/>
<stop offset="0.06" stop-color="#EE3037"/>
<stop offset="0.25" stop-color="#F36E73"/>
<stop offset="0.44" stop-color="#F7A1A5"/>
<stop offset="0.61" stop-color="#FACACC"/>
<stop offset="0.77" stop-color="#FDE7E8"/>
<stop offset="0.9" stop-color="#FEF8F8"/>
<stop offset="1" stop-color="white"/>
</radialGradient>
<linearGradient id="paint3_linear_104_235" x1="99.3663" y1="100.452" x2="99.3663" y2="121.468" gradientUnits="userSpaceOnUse">
<stop stop-color="#ED1C24"/>
<stop offset="1" stop-color="#4E272D"/>
</linearGradient>
<radialGradient id="paint4_radial_104_235" cx="0" cy="0" r="1" gradientUnits="userSpaceOnUse" gradientTransform="translate(99.3663 126.256) scale(19.3615 18.5871)">
<stop stop-color="#F5F5F5"/>
<stop offset="0.05" stop-color="#C7C7C7"/>
<stop offset="0.09" stop-color="#9C9C9C"/>
<stop offset="0.14" stop-color="#777777"/>
<stop offset="0.2" stop-color="#565656"/>
<stop offset="0.25" stop-color="#3B3B3B"/>
<stop offset="0.32" stop-color="#252525"/>
<stop offset="0.4" stop-color="#141414"/>
<stop offset="0.49" stop-color="#080808"/>
<stop offset="0.63" stop-color="#010101"/>
<stop offset="1"/>
</radialGradient>
<radialGradient id="paint5_radial_104_235" cx="0" cy="0" r="1" gradientUnits="userSpaceOnUse" gradientTransform="translate(68.816 75.2667) scale(20.4917 20.4917)">
<stop stop-color="#B3B3B3"/>
<stop offset="0.46" stop-color="#4D4D4D"/>
<stop offset="1"/>
</radialGradient>
<radialGradient id="paint6_radial_104_235" cx="0" cy="0" r="1" gradientUnits="userSpaceOnUse" gradientTransform="translate(129.923 75.2667) rotate(180) scale(20.4917 20.4917)">
<stop stop-color="#B3B3B3"/>
<stop offset="0.46" stop-color="#4D4D4D"/>
<stop offset="1"/>
</radialGradient>
</defs>
</svg>
