<svg width="185" height="56" viewBox="0 0 185 56" fill="none" xmlns="http://www.w3.org/2000/svg">
<path d="M10.488 37.6329L10.074 29.0309L25.484 12.7929H33.764L19.872 27.7429L15.732 32.1589L10.488 37.6329ZM3.818 44.9929V12.7929H11.224V44.9929H3.818ZM25.852 44.9929L14.398 30.9629L19.274 25.6729L34.546 44.9929H25.852ZM44.7228 25.7649H60.2248V31.5609H44.7228V25.7649ZM45.2748 39.0129H62.8008V44.9929H37.8688V12.7929H62.2028V18.7729H45.2748V39.0129ZM68.7301 44.9929V12.7929H74.8941L93.8921 35.9769H90.9021V12.7929H98.2621V44.9929H92.1441L73.1001 21.8089H76.0901V44.9929H68.7301ZM121.521 45.5449C118.975 45.5449 116.614 45.1309 114.437 44.3029C112.29 43.4749 110.419 42.3096 108.824 40.8069C107.261 39.3043 106.034 37.5409 105.145 35.5169C104.286 33.4929 103.857 31.2849 103.857 28.8929C103.857 26.5009 104.286 24.2929 105.145 22.2689C106.034 20.2449 107.276 18.4816 108.871 16.9789C110.465 15.4763 112.336 14.3109 114.483 13.4829C116.629 12.6549 118.96 12.2409 121.475 12.2409C124.02 12.2409 126.35 12.6549 128.467 13.4829C130.613 14.3109 132.469 15.4763 134.033 16.9789C135.627 18.4816 136.869 20.2449 137.759 22.2689C138.648 24.2623 139.093 26.4703 139.093 28.8929C139.093 31.2849 138.648 33.5083 137.759 35.5629C136.869 37.5869 135.627 39.3503 134.033 40.8529C132.469 42.3249 130.613 43.4749 128.467 44.3029C126.35 45.1309 124.035 45.5449 121.521 45.5449ZM121.475 39.1969C122.916 39.1969 124.235 38.9516 125.431 38.4609C126.657 37.9703 127.731 37.2649 128.651 36.3449C129.571 35.4249 130.276 34.3363 130.767 33.0789C131.288 31.8216 131.549 30.4263 131.549 28.8929C131.549 27.3596 131.288 25.9643 130.767 24.7069C130.276 23.4496 129.571 22.3609 128.651 21.4409C127.761 20.5209 126.703 19.8156 125.477 19.3249C124.25 18.8343 122.916 18.5889 121.475 18.5889C120.033 18.5889 118.699 18.8343 117.473 19.3249C116.277 19.8156 115.219 20.5209 114.299 21.4409C113.379 22.3609 112.658 23.4496 112.137 24.7069C111.646 25.9643 111.401 27.3596 111.401 28.8929C111.401 30.3956 111.646 31.7909 112.137 33.0789C112.658 34.3363 113.363 35.4249 114.253 36.3449C115.173 37.2649 116.246 37.9703 117.473 38.4609C118.699 38.9516 120.033 39.1969 121.475 39.1969ZM149.953 45.5449C147.776 45.5449 145.767 45.1463 143.927 44.3489C142.118 43.5209 140.631 42.3556 139.465 40.8529L143.605 35.8849C144.495 37.0503 145.43 37.9396 146.411 38.5529C147.393 39.1356 148.451 39.4269 149.585 39.4269C152.621 39.4269 154.139 37.6483 154.139 34.0909V18.7729H142.823V12.7929H161.545V33.6769C161.545 37.6636 160.564 40.6383 158.601 42.6009C156.639 44.5636 153.756 45.5449 149.953 45.5449ZM168.906 44.9929V12.7929H176.358V44.9929H168.906Z" fill="#363753"/>
<path d="M134.185 41.8561C141.464 34.5769 141.464 22.7749 134.185 15.4957C126.906 8.21642 115.104 8.21642 107.824 15.4957C100.545 22.7749 100.545 34.5769 107.824 41.8561C115.104 49.1354 126.906 49.1354 134.185 41.8561Z" fill="url(#paint0_radial_104_260)" stroke="#363753" stroke-width="3"/>
<path style="mix-blend-mode:multiply" d="M115.407 38.196C119.891 36.195 121.903 30.9381 119.902 26.4544C117.901 21.9706 112.645 19.9579 108.161 21.9589C103.677 23.9599 101.664 29.2168 103.665 33.7006C105.666 38.1843 110.923 40.197 115.407 38.196Z" fill="url(#paint1_radial_104_260)"/>
<path d="M116.608 27.8596C118.156 26.3824 118.213 23.9306 116.736 22.3832C115.258 20.8358 112.807 20.7789 111.259 22.256C109.712 23.7332 109.655 26.1851 111.132 27.7324C112.609 29.2798 115.061 29.3368 116.608 27.8596Z" fill="url(#paint2_radial_104_260)"/>
<path d="M116.377 25.3889C117.177 24.5893 117.177 23.2928 116.377 22.4932C115.578 21.6936 114.281 21.6936 113.482 22.4932C112.682 23.2928 112.682 24.5893 113.482 25.3889C114.281 26.1885 115.578 26.1885 116.377 25.3889Z" fill="white"/>
<path d="M128.684 28.884C130.797 28.5497 132.239 26.5658 131.905 24.4528C131.571 22.3399 129.587 20.898 127.474 21.2322C125.361 21.5665 123.919 23.5504 124.253 25.6634C124.588 27.7764 126.572 29.2183 128.684 28.884Z" fill="url(#paint3_radial_104_260)"/>
<path d="M130.523 25.39C131.322 24.5904 131.322 23.2939 130.523 22.4943C129.723 21.6947 128.426 21.6947 127.627 22.4943C126.827 23.2939 126.827 24.5904 127.627 25.39C128.426 26.1896 129.723 26.1896 130.523 25.39Z" fill="white"/>
<path style="mix-blend-mode:screen" d="M130.37 31.0883C130.37 31.5218 126.177 31.8748 121.005 31.8748C115.833 31.8748 111.64 31.5237 111.64 31.0883C111.64 30.6529 115.833 30.3019 121.005 30.3019C126.177 30.3019 130.37 30.6529 130.37 31.0883Z" fill="url(#paint4_radial_104_260)"/>
<defs>
<radialGradient id="paint0_radial_104_260" cx="0" cy="0" r="1" gradientUnits="userSpaceOnUse" gradientTransform="translate(102.463 20.5677) scale(24.8607)">
<stop stop-color="white"/>
<stop offset="0.34" stop-color="#EDFB97"/>
<stop offset="0.51" stop-color="#AFF964"/>
<stop offset="0.75" stop-color="#A5F71E"/>
<stop offset="1" stop-color="#AFDB00"/>
</radialGradient>
<radialGradient id="paint1_radial_104_260" cx="0" cy="0" r="1" gradientUnits="userSpaceOnUse" gradientTransform="translate(102.463 30.6934) scale(0.0980622)">
<stop stop-color="#ED1C24"/>
<stop offset="0.06" stop-color="#EE3037"/>
<stop offset="0.25" stop-color="#F36E73"/>
<stop offset="0.44" stop-color="#F7A1A5"/>
<stop offset="0.61" stop-color="#FACACC"/>
<stop offset="0.77" stop-color="#FDE7E8"/>
<stop offset="0.9" stop-color="#FEF8F8"/>
<stop offset="1" stop-color="white"/>
</radialGradient>
<radialGradient id="paint2_radial_104_260" cx="0" cy="0" r="1" gradientUnits="userSpaceOnUse" gradientTransform="translate(114.374 24.4929) scale(3.50867)">
<stop stop-color="#B3B3B3"/>
<stop offset="0.46" stop-color="#4D4D4D"/>
<stop offset="1"/>
</radialGradient>
<radialGradient id="paint3_radial_104_260" cx="0" cy="0" r="1" gradientUnits="userSpaceOnUse" gradientTransform="translate(128.519 24.4941) scale(3.50867)">
<stop stop-color="#B3B3B3"/>
<stop offset="0.46" stop-color="#4D4D4D"/>
<stop offset="1"/>
</radialGradient>
<radialGradient id="paint4_radial_104_260" cx="0" cy="0" r="1" gradientUnits="userSpaceOnUse" gradientTransform="translate(73.8412 29.8678) scale(7.71483 0.627951)">
<stop stop-color="#F5F5F5"/>
<stop offset="0.05" stop-color="#C7C7C7"/>
<stop offset="0.09" stop-color="#9C9C9C"/>
<stop offset="0.14" stop-color="#777777"/>
<stop offset="0.2" stop-color="#565656"/>
<stop offset="0.25" stop-color="#3B3B3B"/>
<stop offset="0.32" stop-color="#252525"/>
<stop offset="0.4" stop-color="#141414"/>
<stop offset="0.49" stop-color="#080808"/>
<stop offset="0.63" stop-color="#010101"/>
<stop offset="1"/>
</radialGradient>
</defs>
</svg>
