<?xml version="1.0" encoding="utf-8"?>
<!-- Generator: Adobe Illustrator 15.0.0, SVG Export Plug-In . SVG Version: 6.00 Build 0)  -->
<!DOCTYPE svg PUBLIC "-//W3C//DTD SVG 1.1//EN" "http://www.w3.org/Graphics/SVG/1.1/DTD/svg11.dtd">
<svg version="1.1" id="Layer_1" xmlns="http://www.w3.org/2000/svg" xmlns:xlink="http://www.w3.org/1999/xlink" x="0px" y="0px"
	 width="244px" height="63px" viewBox="0 0 500 140" enable-background="new 0 0 500 140" xml:space="preserve">
<path fill="#612975" d="M25.072,73.429H16.5v31.879H8.227V29.889c2.5-0.246,5.258-0.443,8.273-0.59s5.972-0.221,8.869-0.221
	c3.532,0,6.607,0.468,9.226,1.402c2.62,0.935,4.782,2.287,6.488,4.059c1.706,1.771,2.976,3.936,3.809,6.494
	c0.833,2.559,1.25,5.461,1.25,8.707c0,3.15-0.347,5.941-1.042,8.376c-0.695,2.436-1.618,4.564-2.768,6.384
	c-1.151,1.82-2.51,3.37-4.077,4.648c-1.568,1.28-3.205,2.339-4.911,3.174c1.825,3.887,3.581,7.59,5.268,11.106
	c1.687,3.518,3.383,6.617,5.089,9.298c1.706,2.683,3.432,4.809,5.178,6.384c1.747,1.575,3.611,2.36,5.596,2.36h0.595v3.321
	c-0.873,0.395-1.985,0.713-3.333,0.96c-1.35,0.245-2.719,0.369-4.107,0.369c-1.985,0-3.671-0.333-5.06-0.996
	c-1.389-0.664-2.748-1.919-4.077-3.765c-1.33-1.845-2.768-4.391-4.316-7.638s-3.452-7.454-5.714-12.618L25.072,73.429z
	 M19.06,68.188c3.729,0,6.755-0.269,9.077-0.812c2.321-0.541,4.097-1.302,5.327-2.287c0.556-0.442,1.072-1.033,1.548-1.771
	c0.477-0.738,0.882-1.685,1.22-2.841c0.337-1.156,0.595-2.559,0.773-4.208c0.179-1.647,0.268-3.627,0.268-5.94
	c0-2.902-0.338-5.374-1.012-7.416c-0.675-2.041-1.647-3.702-2.917-4.981c-1.27-1.279-2.807-2.214-4.613-2.804
	c-1.806-0.59-3.86-0.886-6.16-0.886c-1.152,0-2.143,0.037-2.977,0.111c-0.833,0.074-1.866,0.185-3.095,0.332v33.502H19.06z"/>
<path fill="#612975" d="M93.939,100.069c1.072,0,2.479-0.296,4.226-0.886v3.172c-1.271,0.837-2.659,1.648-4.166,2.436
	c-1.509,0.787-3.096,1.181-4.762,1.181c-0.953,0-1.767-0.185-2.44-0.554c-0.675-0.368-1.23-0.859-1.667-1.475
	c-0.437-0.616-0.794-1.293-1.071-2.03c-0.279-0.738-0.517-1.476-0.714-2.213c-1.033,0.837-2.024,1.648-2.976,2.434
	c-0.953,0.788-1.955,1.489-3.006,2.104c-1.052,0.615-2.172,1.105-3.363,1.475c-1.19,0.369-2.521,0.555-3.988,0.555
	c-3.333,0-5.962-1.144-7.886-3.432c-1.925-2.288-2.887-5.743-2.887-10.369c0-2.459,0.288-4.612,0.863-6.456
	c0.575-1.845,1.498-3.396,2.768-4.649c1.27-1.256,2.917-2.201,4.941-2.842c2.023-0.639,4.503-1.008,7.44-1.107l7.321-0.295v-8.929
	c0-2.803-0.457-4.857-1.37-6.161c-0.913-1.304-2.439-1.957-4.583-1.957c-1.547,0-3.433,0.358-5.654,1.071
	c-2.223,0.713-4.405,1.636-6.547,2.767l-1.429-4.724c1.271-0.638,2.609-1.291,4.019-1.955c1.408-0.665,2.847-1.255,4.315-1.771
	c1.468-0.517,2.956-0.933,4.464-1.255c1.508-0.319,2.997-0.479,4.465-0.479c1.626,0,3.084,0.221,4.375,0.664
	c1.289,0.443,2.38,1.194,3.273,2.25c0.894,1.059,1.567,2.461,2.024,4.207c0.455,1.747,0.685,3.899,0.685,6.456v24.132
	C90.606,97.19,91.717,100.069,93.939,100.069z M82.809,96.305c0-0.245-0.041-1.66-0.119-4.243c-0.08-2.583-0.119-6.236-0.119-10.958
	c-4.326,0-7.599,0.344-9.821,1.033c-2.223,0.689-3.592,1.377-4.107,2.064c-0.476,0.641-0.824,1.551-1.042,2.731
	c-0.219,1.181-0.327,2.558-0.327,4.133c0,2.804,0.387,4.957,1.161,6.456c0.773,1.502,2.073,2.252,3.898,2.252
	c1.944,0,3.729-0.27,5.357-0.812C79.316,98.42,81.023,97.534,82.809,96.305z"/>
<path fill="#612975" d="M133.938,105.308V70.181c0-1.181-0.08-2.348-0.238-3.505c-0.159-1.156-0.486-2.189-0.982-3.1
	c-0.497-0.909-1.201-1.66-2.113-2.25c-0.913-0.59-2.143-0.886-3.69-0.886c-0.993,0-2.054,0.148-3.185,0.443
	c-1.131,0.295-2.272,0.665-3.423,1.107c-1.151,0.443-2.262,0.959-3.333,1.55c-1.072,0.59-2.044,1.181-2.917,1.771v39.997h-8.035
	V54.832h6.726l1.131,5.903h0.119c0.912-0.639,1.973-1.365,3.184-2.177c1.21-0.812,2.509-1.573,3.898-2.288
	c1.389-0.713,2.837-1.316,4.346-1.807c1.507-0.492,3.035-0.738,4.583-0.738c1.746,0,3.353,0.308,4.821,0.922
	c1.468,0.617,2.728,1.55,3.78,2.805c1.051,1.255,1.875,2.805,2.47,4.65c0.595,1.844,0.893,4.022,0.893,6.53v36.677H133.938z"/>
<path fill="#612975" d="M215.96,53.725c1.786,0,3.532,0.32,5.238,0.959c1.705,0.639,3.264,1.71,4.672,3.21
	c1.408,1.501,2.639,3.494,3.69,5.977c1.052,2.486,1.835,5.572,2.352,9.262v0.591c-0.357,0.542-0.844,1.033-1.458,1.476
	c-0.616,0.443-1.42,0.838-2.411,1.18c-0.992,0.346-2.212,0.654-3.661,0.924c-1.449,0.27-3.184,0.479-5.208,0.627l-13.213,1.107
	v3.173c0,5.954,0.853,10.283,2.56,12.987c1.705,2.706,4.286,4.06,7.738,4.06c1.428,0,2.906-0.173,4.434-0.517
	c1.527-0.344,2.986-0.763,4.375-1.255c1.388-0.491,2.648-0.997,3.78-1.512c1.131-0.517,2.013-0.973,2.648-1.366l1.012,2.878
	c-1.151,0.935-2.44,1.919-3.869,2.952c-1.428,1.032-2.967,1.98-4.613,2.842c-1.647,0.86-3.373,1.574-5.179,2.139
	c-1.806,0.565-3.66,0.85-5.565,0.85c-2.262,0-4.355-0.443-6.279-1.329c-1.925-0.886-3.601-2.312-5.03-4.279
	c-1.428-1.968-2.55-4.538-3.363-7.712c-0.814-3.174-1.22-7.023-1.22-11.549c0-5.066,0.476-9.372,1.429-12.915
	c0.952-3.542,2.261-6.395,3.928-8.561c1.667-2.164,3.631-3.737,5.893-4.722C210.901,54.218,213.342,53.725,215.96,53.725z
	 M209.235,61.03c-0.438,0.394-0.844,1.022-1.221,1.881c-0.377,0.862-0.705,1.895-0.982,3.1c-0.278,1.206-0.506,2.522-0.684,3.948
	c-0.179,1.427-0.268,2.878-0.268,4.355l17.023-0.886c-0.199-1.673-0.486-3.358-0.863-5.055c-0.378-1.698-0.893-3.21-1.548-4.539
	c-0.654-1.329-1.479-2.411-2.47-3.248c-0.993-0.835-2.202-1.255-3.631-1.255c-0.952,0-1.895,0.124-2.827,0.369
	C210.832,59.948,209.987,60.391,209.235,61.03z"/>
<path fill="#612975" d="M303.934,105.308V70.181h-33.512v35.126h-8.273V29.741h8.273v34.906h33.512V29.741h8.273v75.566H303.934z"/>
<path fill="#612975" d="M344.29,106.268c-6.39,0-11.279-2.226-14.673-6.679c-3.393-4.452-5.088-10.959-5.088-19.519
	c0-4.033,0.416-7.687,1.249-10.959c0.834-3.271,2.083-6.038,3.75-8.303c1.667-2.261,3.729-4.009,6.19-5.239
	c2.46-1.229,5.318-1.845,8.571-1.845c3.215,0,6.051,0.579,8.513,1.734c2.459,1.157,4.523,2.854,6.19,5.093
	c1.665,2.239,2.916,4.981,3.749,8.228c0.834,3.248,1.25,6.963,1.25,11.143c0,4.085-0.416,7.748-1.25,10.996
	c-0.833,3.246-2.084,6.014-3.749,8.302c-1.667,2.288-3.731,4.034-6.19,5.24C350.341,105.664,347.505,106.268,344.29,106.268z
	 M333.04,79.996c0,3.689,0.209,6.839,0.626,9.445c0.416,2.609,1.07,4.748,1.963,6.421c0.895,1.672,2.045,2.903,3.454,3.69
	c1.408,0.786,3.104,1.181,5.089,1.181c1.626,0,3.035-0.196,4.227-0.591c1.188-0.394,2.38-1.132,3.57-2.214
	c1.389-1.278,2.321-3.506,2.798-6.679c0.476-3.174,0.714-6.9,0.714-11.18c0-7.184-0.884-12.435-2.648-15.756
	c-1.766-3.32-4.574-4.981-8.423-4.981c-1.587,0-3.006,0.198-4.255,0.59c-1.251,0.395-2.432,1.083-3.542,2.067
	c-0.675,0.59-1.23,1.489-1.667,2.693c-0.438,1.206-0.804,2.608-1.102,4.207s-0.505,3.358-0.625,5.276
	C333.101,76.084,333.04,78.028,333.04,79.996z"/>
<path fill="#612975" d="M375.958,60.292l-4.585-0.517v-2.877l10.774-10.922h1.607l0.178,8.855h11.132l-0.536,4.501
	c-0.993,0.147-2.094,0.284-3.304,0.407c-1.212,0.123-2.351,0.234-3.423,0.332c-1.271,0.147-2.54,0.247-3.809,0.295v32.839
	c0,1.821,0.267,3.334,0.804,4.538c0.534,1.206,1.695,1.81,3.481,1.81c0.952,0,2.103-0.025,3.452-0.074
	c1.349-0.049,2.579-0.123,3.69-0.222v3.468c-0.595,0.346-1.359,0.715-2.291,1.107c-0.934,0.394-1.955,0.775-3.066,1.145
	c-1.111,0.367-2.223,0.675-3.333,0.922c-1.111,0.245-2.143,0.369-3.096,0.369c-0.873,0-1.766-0.137-2.678-0.407
	c-0.914-0.27-1.736-0.773-2.471-1.512c-0.735-0.738-1.34-1.783-1.815-3.137c-0.477-1.352-0.713-3.11-0.713-5.276V60.292z"/>
<path fill="#612975" d="M419.586,53.725c1.786,0,3.532,0.32,5.238,0.959s3.264,1.71,4.673,3.21c1.408,1.501,2.638,3.494,3.69,5.977
	c1.051,2.486,1.834,5.572,2.351,9.262v0.591c-0.356,0.542-0.844,1.033-1.458,1.476c-0.615,0.443-1.419,0.838-2.41,1.18
	c-0.993,0.346-2.213,0.654-3.661,0.924s-3.185,0.479-5.208,0.627l-13.215,1.107v3.173c0,5.954,0.854,10.283,2.56,12.987
	c1.706,2.706,4.286,4.06,7.739,4.06c1.429,0,2.906-0.173,4.434-0.517s2.985-0.763,4.376-1.255c1.388-0.491,2.648-0.997,3.779-1.512
	c1.131-0.517,2.014-0.973,2.648-1.366l1.011,2.878c-1.15,0.935-2.439,1.919-3.868,2.952c-1.429,1.032-2.967,1.98-4.612,2.842
	c-1.647,0.86-3.374,1.574-5.18,2.139c-1.806,0.565-3.66,0.85-5.564,0.85c-2.262,0-4.355-0.443-6.28-1.329s-3.601-2.312-5.029-4.279
	s-2.55-4.538-3.362-7.712c-0.815-3.174-1.221-7.023-1.221-11.549c0-5.066,0.477-9.372,1.428-12.915
	c0.952-3.542,2.263-6.395,3.929-8.561c1.667-2.164,3.632-3.737,5.894-4.722C414.527,54.218,416.967,53.725,419.586,53.725z
	 M412.86,61.03c-0.438,0.394-0.843,1.022-1.22,1.881c-0.378,0.862-0.705,1.895-0.982,3.1c-0.278,1.206-0.506,2.522-0.685,3.948
	c-0.179,1.427-0.268,2.878-0.268,4.355l17.022-0.886c-0.198-1.673-0.485-3.358-0.863-5.055c-0.377-1.698-0.893-3.21-1.547-4.539
	s-1.479-2.411-2.471-3.248c-0.991-0.835-2.201-1.255-3.63-1.255c-0.953,0-1.896,0.124-2.827,0.369
	C414.457,59.948,413.613,60.391,412.86,61.03z"/>
<path fill="#612975" d="M446.968,105.308V22.509L455.003,20v85.308H446.968z"/>
<path fill="#612975" d="M494.703,89.441c0,2.509-0.347,4.661-1.042,6.458c-0.693,1.797-1.616,3.383-2.767,4.76
	c-0.635,0.737-1.33,1.451-2.084,2.14s-1.606,1.292-2.56,1.809c-0.952,0.517-2.023,0.922-3.214,1.217
	c-1.19,0.296-2.521,0.443-3.988,0.443c-2.699,0-5.158-0.369-7.381-1.107s-4.306-1.919-6.25-3.543l2.382-6.862
	c0.871,0.689,1.805,1.366,2.798,2.029c0.991,0.664,2.033,1.281,3.125,1.845c1.09,0.566,2.211,1.022,3.362,1.366
	c1.15,0.344,2.342,0.517,3.571,0.517c1.35,0,2.499-0.122,3.452-0.369c0.952-0.246,1.766-0.664,2.441-1.255
	c0.633-0.541,1.15-1.315,1.547-2.325c0.396-1.007,0.595-2.472,0.595-4.391c0-1.722-0.535-3.124-1.607-4.206
	c-1.07-1.082-2.41-2.017-4.018-2.805c-1.606-0.786-3.354-1.573-5.237-2.362c-1.886-0.785-3.631-1.77-5.237-2.951
	c-1.607-1.18-2.947-2.668-4.018-4.464c-1.072-1.796-1.607-4.12-1.607-6.974c0-2.114,0.356-3.923,1.071-5.424
	c0.714-1.5,1.606-2.89,2.678-4.169c1.35-1.574,2.917-2.816,4.702-3.727c1.786-0.909,3.751-1.365,5.893-1.365
	c1.706,0,3.502,0.136,5.388,0.405c1.885,0.271,3.68,0.579,5.387,0.923l-1.19,7.306c-0.794-0.245-1.667-0.492-2.62-0.738
	c-0.952-0.245-1.934-0.466-2.945-0.664c-1.012-0.197-1.985-0.357-2.917-0.479c-0.934-0.123-1.756-0.186-2.471-0.186
	c-1.588,0-2.817,0.111-3.69,0.333c-0.873,0.221-1.547,0.553-2.023,0.996c-0.438,0.394-0.765,0.948-0.981,1.66
	c-0.219,0.714-0.327,1.661-0.327,2.842c0,1.575,0.534,2.854,1.606,3.836c1.071,0.984,2.421,1.871,4.047,2.658
	c1.627,0.786,3.373,1.586,5.239,2.397c1.864,0.812,3.609,1.82,5.237,3.026c1.627,1.205,2.977,2.705,4.047,4.5
	C494.168,84.338,494.703,86.637,494.703,89.441z"/>
<path fill="#612975" d="M161.021,92.023c-0.635,0.738-1.28,1.563-1.935,2.474c-0.654,0.911-1.25,1.844-1.786,2.804
	c-0.536,0.959-0.973,1.956-1.309,2.989c-0.338,1.032-0.506,2.042-0.506,3.025c0,3.395,1.061,5.842,3.185,7.343
	c2.122,1.5,5.525,2.275,10.208,2.324l6.488,0.074c3.134,0,5.356,0.602,6.667,1.808c0.002,0.001,0.003,0.005,0.005,0.007h8.955
	c-0.105-1.408-0.308-2.687-0.627-3.808c-0.476-1.673-1.271-3.063-2.381-4.17c-1.111-1.106-2.569-1.917-4.375-2.434
	c-1.807-0.517-4.038-0.776-6.697-0.776h-8.75c-1.666,0-3.086-0.27-4.256-0.812c-1.17-0.54-1.756-1.573-1.756-3.099
	c0-1.279,0.158-2.558,0.476-3.838c0.317-1.278,0.615-2.262,0.894-2.952c0.595,0.248,1.438,0.406,2.53,0.48
	c1.09,0.074,2.032,0.11,2.827,0.11c2.301,0,4.483-0.431,6.547-1.291c2.063-0.861,3.849-2.129,5.357-3.801
	c1.507-1.672,2.708-3.764,3.601-6.272c0.893-2.509,1.339-5.411,1.339-8.708c0-3.296-0.238-5.978-0.714-8.043
	c-0.476-2.066-1.051-3.838-1.726-5.314c1.15,0,2.401-0.123,3.75-0.369c1.348-0.245,2.479-0.564,3.392-0.959l0.894-5.091
	c-1.628,0.443-3.522,0.812-5.685,1.107c-2.164,0.295-4.197,0.492-6.101,0.591c-1.429-0.542-2.897-0.959-4.405-1.255
	c-1.509-0.295-3.235-0.443-5.178-0.443c-2.342,0-4.504,0.479-6.488,1.438c-1.984,0.959-3.71,2.338-5.178,4.133
	c-1.469,1.796-2.61,3.984-3.422,6.567c-0.814,2.583-1.221,5.474-1.221,8.671c0,4.379,0.694,7.995,2.083,10.848
	C157.112,88.236,158.878,90.45,161.021,92.023z M163.521,60.882c1.388-1.228,3.353-1.845,5.892-1.845
	c1.349,0,2.569,0.369,3.661,1.107c1.09,0.738,2.023,1.76,2.797,3.063c0.774,1.305,1.359,2.842,1.756,4.612
	c0.396,1.771,0.595,3.691,0.595,5.757c0,3.739-0.229,6.616-0.685,8.634c-0.457,2.019-1.082,3.37-1.875,4.058
	c-1.667,1.379-3.849,2.067-6.547,2.067c-1.191,0-2.272-0.407-3.244-1.218c-0.973-0.812-1.815-1.883-2.53-3.211
	c-0.714-1.327-1.27-2.864-1.666-4.612c-0.397-1.745-0.595-3.552-0.595-5.423C161.081,66.688,161.894,62.359,163.521,60.882z"/>
<path fill="#612975" d="M182.666,117.356c0,0,2.484,11.921,14.724,12.395c11.206,0.433,34.235-0.63,43.624-15.366l-1.664-1.782
	c0,0-5.266,9.731-24.401,12.596c-19.445,2.911-22.187-3.643-22.187-3.643L182.666,117.356z"/>
<path fill="#612975" d="M178.599,113.329c0,0,3.902-0.047,4.066,4.039l10.096,4.198c0,0-1.333-1.543-1.57-4.119
	c-0.237-2.576-0.199-2.576-0.199-2.576L178.599,113.329z"/>
</svg>
