<svg aria-hidden="true" style="position: absolute; width: 0; height: 0; overflow: hidden;" version="1.1" xmlns="http://www.w3.org/2000/svg" xmlns:xlink="http://www.w3.org/1999/xlink">
<defs>
<symbol id="icon-home3" viewBox="0 0 32 32">
<path d="M32 19l-6-6v-9h-4v5l-6-6-16 16v1h4v10h10v-6h4v6h10v-10h4z"></path>
</symbol>
<symbol id="icon-map" viewBox="0 0 32 32">
<path d="M0 6l10-4v24l-10 4z"></path>
<path d="M12 1l10 6v23l-10-5z"></path>
<path d="M24 7l8-6v24l-8 6z"></path>
</symbol>
<symbol id="icon-bubbles4" viewBox="0 0 36 32">
<path d="M15 4c-1.583 0-3.112 0.248-4.543 0.738-1.341 0.459-2.535 1.107-3.547 1.926-1.876 1.518-2.91 3.463-2.91 5.474 0 1.125 0.315 2.217 0.935 3.247 0.646 1.073 1.622 2.056 2.821 2.842 0.951 0.624 1.592 1.623 1.761 2.748 0.028 0.187 0.051 0.375 0.068 0.564 0.085-0.079 0.169-0.16 0.254-0.244 0.754-0.751 1.771-1.166 2.823-1.166 0.167 0 0.335 0.011 0.503 0.032 0.605 0.077 1.223 0.116 1.836 0.116 1.583 0 3.112-0.248 4.543-0.738 1.341-0.459 2.535-1.107 3.547-1.926 1.876-1.518 2.91-3.463 2.91-5.474s-1.033-3.956-2.91-5.474c-1.012-0.819-2.206-1.467-3.547-1.926-1.431-0.49-2.96-0.738-4.543-0.738zM15 0v0c8.284 0 15 5.435 15 12.139s-6.716 12.139-15 12.139c-0.796 0-1.576-0.051-2.339-0.147-3.222 3.209-6.943 3.785-10.661 3.869v-0.785c2.008-0.98 3.625-2.765 3.625-4.804 0-0.285-0.022-0.564-0.063-0.837-3.392-2.225-5.562-5.625-5.562-9.434 0-6.704 6.716-12.139 15-12.139zM31.125 27.209c0 1.748 1.135 3.278 2.875 4.118v0.673c-3.223-0.072-6.181-0.566-8.973-3.316-0.661 0.083-1.337 0.126-2.027 0.126-2.983 0-5.732-0.805-7.925-2.157 4.521-0.016 8.789-1.464 12.026-4.084 1.631-1.32 2.919-2.87 3.825-4.605 0.961-1.84 1.449-3.799 1.449-5.825 0-0.326-0.014-0.651-0.039-0.974 2.268 1.873 3.664 4.426 3.664 7.24 0 3.265-1.88 6.179-4.82 8.086-0.036 0.234-0.055 0.474-0.055 0.718z"></path>
</symbol>
<symbol id="icon-spoon-knife" viewBox="0 0 32 32">
<path d="M7 0c-3.314 0-6 3.134-6 7 0 3.31 1.969 6.083 4.616 6.812l-0.993 16.191c-0.067 1.098 0.778 1.996 1.878 1.996h1c1.1 0 1.945-0.898 1.878-1.996l-0.993-16.191c2.646-0.729 4.616-3.502 4.616-6.812 0-3.866-2.686-7-6-7zM27.167 0l-1.667 10h-1.25l-0.833-10h-0.833l-0.833 10h-1.25l-1.667-10h-0.833v13c0 0.552 0.448 1 1 1h2.604l-0.982 16.004c-0.067 1.098 0.778 1.996 1.878 1.996h1c1.1 0 1.945-0.898 1.878-1.996l-0.982-16.004h2.604c0.552 0 1-0.448 1-1v-13h-0.833z"></path>
</symbol>
</defs>
</svg>
